<svg xmlns="http://www.w3.org/2000/svg" version="1.1" xmlns:xlink="http://www.w3.org/1999/xlink" width="512" height="512" x="0" y="0" viewBox="0 0 24 25" style="enable-background:new 0 0 512 512" xml:space="preserve" class=""><g><g fill="#000"><path d="M15.31 13.98a1.072 1.072 0 1 1 0-2.144 1.072 1.072 0 0 1 0 2.144zM12 13.98a1.072 1.072 0 1 1 0-2.144 1.072 1.072 0 0 1 0 2.144zM8.69 13.98a1.072 1.072 0 1 1 0-2.144 1.072 1.072 0 0 1 0 2.144z" fill="#377563" opacity="1" data-original="#000000" class=""></path><g fill-rule="evenodd" clip-rule="evenodd"><path d="M4.286 7.62a2.75 2.75 0 0 1 2.75-2.75h.327a.75.75 0 1 1 0 1.5h-.327c-.69 0-1.25.56-1.25 1.25v3.206a.75.75 0 0 1-.237.547l-1.053.988a.75.75 0 0 0 0 1.094l1.053.99a.75.75 0 0 1 .237.546v3.206c0 .69.56 1.25 1.25 1.25h.327a.75.75 0 0 1 0 1.5h-.327a2.75 2.75 0 0 1-2.75-2.75v-2.882l-.817-.766a2.25 2.25 0 0 1 0-3.281l.817-.767zM19.714 7.62a2.75 2.75 0 0 0-2.75-2.75h-.327a.75.75 0 0 0 0 1.5h.327c.69 0 1.25.56 1.25 1.25v3.206a.75.75 0 0 0 .237.547l1.053.988a.75.75 0 0 1 0 1.094l-1.053.99a.75.75 0 0 0-.237.546v3.206c0 .69-.56 1.25-1.25 1.25h-.327a.75.75 0 0 0 0 1.5h.327a2.75 2.75 0 0 0 2.75-2.75v-2.882l.817-.766a2.25 2.25 0 0 0 0-3.281l-.817-.767z" fill="#377563" opacity="1" data-original="#000000" class=""></path></g></g></g></svg>